<?xml version="1.0" standalone="no"?>
<!DOCTYPE svg PUBLIC "-//W3C//DTD SVG 20010904//EN"
 "http://www.w3.org/TR/2001/REC-SVG-20010904/DTD/svg10.dtd">
<svg version="1.0" xmlns="http://www.w3.org/2000/svg"
 width="402.000000pt" height="167.000000pt" viewBox="0 0 402.000000 167.000000"
 preserveAspectRatio="xMidYMid meet">

<g transform="translate(0.000000,167.000000) scale(0.100000,-0.100000)"
fill="#000000" stroke="none">
<path d="M263 1602 c-17 -11 -21 -674 -6 -747 10 -46 10 -51 -12 -71 -28 -25
-21 -5 -94 -304 -99 -411 -96 -397 -81 -414 11 -14 47 -16 246 -16 232 0 234
0 234 21 0 21 -3 22 -92 15 -127 -8 -344 -9 -357 -1 -6 3 -11 14 -11 23 0 27
140 624 151 645 6 10 15 17 21 15 6 -2 26 -80 44 -174 63 -320 61 -314 94
-314 16 0 31 4 34 9 3 5 -3 91 -14 192 -10 101 -37 387 -60 634 -22 248 -43
460 -46 473 -4 22 -28 29 -51 14z m81 -597 c9 -104 18 -200 20 -213 2 -13 -1
-21 -8 -19 -7 2 -18 75 -28 188 -20 217 -21 256 -9 244 5 -6 16 -95 25 -200z
m28 -290 c3 -14 1 -28 -3 -31 -5 -3 -9 1 -9 10 0 8 -3 21 -6 30 -3 9 -2 16 4
16 5 0 12 -11 14 -25z"/>
<path d="M1462 837 c-67 -177 -122 -328 -122 -334 0 -9 20 -13 68 -13 l68 0
26 73 25 72 131 3 130 3 24 -73 25 -73 71 -3 c40 -2 72 1 72 6 0 5 -54 155
-120 332 -66 178 -120 325 -120 327 0 2 -35 3 -77 3 l-78 0 -123 -323z m200
-85 c-46 -2 -86 -1 -88 1 -4 4 71 220 83 240 4 6 25 -45 48 -113 l42 -125 -85
-3z"/>
<path d="M3180 1051 l0 -70 -37 -3 c-37 -3 -38 -4 -41 -45 l-3 -43 40 0 41 0
0 -147 c0 -171 8 -212 47 -235 35 -20 112 -32 152 -23 29 6 31 9 31 54 l0 47
-36 0 c-57 0 -64 18 -64 171 l0 133 50 0 50 0 0 45 0 45 -50 0 -50 0 0 70 0
70 -65 0 -65 0 0 -69z"/>
<path d="M2250 979 c-14 -5 -40 -24 -57 -42 l-33 -31 0 37 0 37 -60 0 -60 0 0
-245 0 -245 65 0 65 0 0 155 c0 178 9 214 59 234 36 16 93 8 112 -16 10 -11
15 -65 19 -192 l5 -176 63 -3 62 -3 0 193 c0 211 -7 241 -61 281 -31 23 -140
33 -179 16z"/>
<path d="M2740 983 c-65 -23 -102 -48 -120 -84 -33 -63 -29 -69 45 -69 51 0
65 3 65 15 0 32 38 55 90 55 54 0 90 -23 90 -57 -1 -42 -28 -56 -148 -73 -91
-14 -133 -35 -162 -82 -37 -62 -16 -142 50 -186 30 -20 45 -23 105 -20 48 2
84 10 113 26 52 27 48 27 55 2 4 -17 14 -20 64 -20 l58 0 -2 157 c-4 225 -9
257 -43 292 -16 15 -49 33 -74 40 -45 11 -158 14 -186 4z m168 -314 c-7 -65
-36 -96 -98 -105 -37 -5 -50 -2 -72 16 -59 46 -26 103 72 124 106 23 103 24
98 -35z"/>
<path d="M3629 977 c-99 -37 -150 -109 -157 -223 -11 -168 83 -273 243 -274
131 0 219 66 246 184 26 116 -20 241 -107 292 -56 33 -166 43 -225 21z m157
-102 c69 -48 73 -219 7 -278 -51 -45 -143 -22 -175 43 -36 71 -17 198 33 234
29 20 107 21 135 1z"/>
<path d="M838 139 c-21 -11 -38 -22 -38 -24 0 -3 23 -5 51 -5 46 0 50 2 47 22
-4 29 -16 31 -60 7z"/>
<path d="M920 125 c0 -39 0 -39 -87 -35 -46 2 -53 -1 -53 -17 0 -17 10 -18
165 -15 103 2 165 7 165 13 0 43 -75 88 -147 89 -42 0 -43 0 -43 -35z"/>
</g>
</svg>
